<svg width="17" height="16" viewBox="0 0 17 16" fill="none" xmlns="http://www.w3.org/2000/svg">
<path id="Icon" fill-rule="evenodd" clip-rule="evenodd" d="M8.27737 13.2348L5.24768 14.8993C4.83845 15.1242 4.33228 14.9597 4.11713 14.5321C4.03146 14.3618 4.00189 14.1667 4.03302 13.9771L4.61164 10.4516C4.65821 10.1679 4.56818 9.87828 4.37087 9.6773L1.9198 7.18055C1.58872 6.84331 1.58195 6.28944 1.90467 5.94345C2.03318 5.80568 2.20157 5.71602 2.38376 5.68836L5.77106 5.174C6.04373 5.13259 6.27944 4.95363 6.40139 4.69543L7.91623 1.48786C8.12085 1.05459 8.62283 0.876705 9.03743 1.09053C9.20253 1.17568 9.33616 1.31533 9.41764 1.48786L10.9325 4.69543C11.0544 4.95363 11.2901 5.13259 11.5628 5.174L14.9501 5.68836C15.4077 5.75783 15.7247 6.20176 15.6582 6.6799C15.6317 6.87029 15.5459 7.04626 15.4141 7.18055L12.963 9.6773C12.7657 9.87828 12.6757 10.1679 12.7222 10.4516L13.3337 13.9771C13.4118 14.4533 13.073 14.9056 12.6173 14.9872C12.4358 15.0198 12.2492 14.9889 12.0862 14.8993L9.0565 13.2348C8.81262 13.1008 8.52126 13.1008 8.27737 13.2348Z" fill="#D9D9D9" stroke="#D9D9D9" stroke-width="1.5" stroke-linejoin="round"/>
</svg>
