<svg width="16" height="16" viewBox="0 0 16 16" fill="none" xmlns="http://www.w3.org/2000/svg">
<path id="Icon" fill-rule="evenodd" clip-rule="evenodd" d="M7.61038 13.2348L4.58069 14.8993C4.17145 15.1242 3.66529 14.9597 3.45014 14.5321C3.36447 14.3618 3.3349 14.1667 3.36603 13.9771L3.94464 10.4516C3.99122 10.1679 3.90119 9.87828 3.70388 9.6773L1.25281 7.18055C0.921731 6.84331 0.914956 6.28944 1.23768 5.94345C1.36619 5.80568 1.53458 5.71602 1.71677 5.68836L5.10407 5.174C5.37674 5.13259 5.61245 4.95363 5.73439 4.69543L7.24924 1.48786C7.45386 1.05459 7.95584 0.876705 8.37044 1.09053C8.53554 1.17568 8.66917 1.31533 8.75065 1.48786L10.2655 4.69543C10.3874 4.95363 10.6232 5.13259 10.8958 5.174L14.2831 5.68836C14.7407 5.75783 15.0577 6.20176 14.9912 6.6799C14.9647 6.87029 14.8789 7.04626 14.7471 7.18055L12.296 9.6773C12.0987 9.87828 12.0087 10.1679 12.0552 10.4516L12.6667 13.9771C12.7448 14.4533 12.406 14.9056 11.9503 14.9872C11.7688 15.0198 11.5822 14.9889 11.4192 14.8993L8.38951 13.2348C8.14562 13.1008 7.85427 13.1008 7.61038 13.2348Z" fill="#A394FF" stroke="#A394FF" stroke-width="1.5" stroke-linejoin="round"/>
</svg>
